# xmcd CD database file
#
# Track frame offsets:
#	182
#	9427
#	23410
#	42975
#	52615
#	65400
#	83375
#	101410
#	126830
#	134665
#	149285
#	162845
#	185965
#	201622
#
# Disc length: 2816 seconds
#
# Revision: 0
# Processed by: cddbd v1.4PL0 Copyright (c) Steve Scherf et al.
# Submitted via: Feurio! 1.63 - http://www.feurio.com
#
DISCID=ba0afe0e
DTITLE=Köster and Hocker - dreckelige krätzjer
DYEAR=1996
DGENRE=blues
TTITLE0=Höflich wie mer sinn
TTITLE1=Dat hät hä nit jekannt
TTITLE2=Er stürb in seinen Stiefelen
TTITLE3=Achtung! Satire!
TTITLE4=Sackjeseech
TTITLE5=Formentera
TTITLE6=Kölle ohne Kölsche
TTITLE7=Ne supercoole Jung un en janz normale Räuz
TTITLE8=Himmi Kemma
TTITLE9=Wahnsinnig weede
TTITLE10=Kleine Mann
TTITLE11=Stille Post
TTITLE12=Buure Säu
TTITLE13=Wat solle mer spreche
EXTD=
EXTT0=
EXTT1=
EXTT2=
EXTT3=
EXTT4=
EXTT5=
EXTT6=
EXTT7=
EXTT8=
EXTT9=
EXTT10=
EXTT11=
EXTT12=
EXTT13=
PLAYORDER=
